<?xml version="1.0" encoding="UTF-8" standalone="no"?>
<svg
   xmlns:dc="http://purl.org/dc/elements/1.1/"
   xmlns:cc="http://creativecommons.org/ns#"
   xmlns:rdf="http://www.w3.org/1999/02/22-rdf-syntax-ns#"
   xmlns:svg="http://www.w3.org/2000/svg"
   xmlns="http://www.w3.org/2000/svg"
   version="1.1"
   id="svg4147"
   viewBox="0 0 399.99999 150.75068"
   height="42.545193mm"
   width="112.88889mm">
  <defs
     id="defs4149" />
  <metadata
     id="metadata4152">
    <rdf:RDF>
      <cc:Work
         rdf:about="">
        <dc:format>image/svg+xml</dc:format>
        <dc:type
           rdf:resource="http://purl.org/dc/dcmitype/StillImage" />
        <dc:title></dc:title>
      </cc:Work>
    </rdf:RDF>
  </metadata>
  <g
     transform="translate(-86.811694,-309.63899)"
     id="layer1">
    <path
       style="fill:#000000;fill-opacity:1;fill-rule:evenodd"
       id="path4849"
       d="m 246.59859,335.26749 c -0.16733,-12.68516 -11.99514,-25.6285 -40.04752,-25.6285 -60.0681,0 -99.15467,19.4644 -100.43593,44.28654 -1.00398,19.43412 22.98628,27.08506 22.98628,27.08506 0,0 -15.47399,11.9282 -25.62849,23.36238 -10.84773,12.20708 -16.661236,23.92333 -16.661236,32.92407 0,17.4421 19.048466,21.75283 29.035636,22.46995 19.26042,1.38007 27.0277,0.1753 31.63325,-0.81274 4.93063,-1.05178 5.08999,-2.83663 5.08999,-2.83663 0,0 -38.52561,3.07886 -49.57732,-11.35769 -7.282816,-9.51388 -2.56572,-21.89944 8.32822,-35.84994 12.3282,-15.79272 23.7066,-25.62532 23.7066,-25.62532 0,0 21.78471,8.75691 45.49768,4.53702 11.29235,-2.00476 18.33613,-11.0278 18.33613,-17.02935 0,-7.29875 -9.8836,-10.86208 -25.46595,-9.40711 -20.7377,1.93625 -37.16627,14.03337 -37.16627,14.03337 0,0 -17.45964,-7.788 -16.97837,-22.46518 0.42231,-12.97202 7.52824,-31.71611 40.84752,-37.72084 23.98071,-4.3187 69.04173,-2.31074 73.68393,19.0644 3.52667,16.2198 -6.0876,24.16875 -6.0876,25.14086 0,0.97688 8.97204,0.48605 11.37521,-1.45975 2.40158,-1.94421 7.68919,-10.76168 7.52824,-22.709 m -105.80323,42.98614 c 0,0 17.29868,-13.78954 31.23484,-13.46604 12.9752,0.30279 16.50187,5.51869 13.77679,12.6533 -1.44541,3.79599 -6.40633,7.70672 -15.05965,7.78799 -17.05645,0.16255 -29.95198,-6.97525 -29.95198,-6.97525 m 108.34982,20.60065 c 0.9243,0.81274 1.88365,2.2709 1.80078,4.5418 -0.0797,2.2709 -2.44141,4.8653 -5.64617,4.8653 -3.20316,0 -3.84061,-1.6207 -4.16252,-6.8127 -0.32191,-5.1888 6.98003,-3.50117 8.00791,-2.5944 m 36.30253,43.14869 c 0,-9.7322 -8.97524,-13.30189 -14.42221,-13.30189 -5.44379,0 -7.36887,1.2972 -9.60949,4.21829 -2.24222,2.91951 -8.00951,14.11305 -15.05965,17.8421 -7.04378,3.73384 -17.45964,5.35455 -14.89392,-5.34976 1.71632,-7.19357 5.24299,-9.44057 5.92506,-10.38558 1.28126,-1.78485 -7.36888,-0.81274 -9.29396,0 -1.9203,0.81275 -6.58641,7.67006 -12.49075,10.38399 -6.6135,3.03265 -9.19515,2.91313 -10.2549,0.15936 -1.14741,-2.98643 0,-9.57284 0,-9.57284 0,0 6.88919,-10.21825 9.1314,-16.05726 5.40235,-14.05567 3.68444,-21.08829 -0.15936,-21.41179 -3.84379,-0.32351 -15.6971,3.243 -18.58154,16.22299 -2.88444,12.9768 -2.40635,20.11459 -2.40635,20.11459 0,0 -4.15933,-2.59759 -12.97202,-2.59759 -14.74093,0 -28.51454,12.3282 -28.51454,18.4923 0,6.65175 7.21111,7.4613 12.17521,7.4613 16.34092,0 29.4723,-10.21506 29.4723,-10.21506 0,0 -0.47808,3.07886 0.7251,5.35135 0.86055,1.62867 8.4828,-0.10358 14.33455,-2.11154 6.33462,-2.17209 11.69076,-4.86052 11.69076,-4.86052 0,0 -6.24697,10.86526 10.41586,10.86526 11.53139,0 18.7409,-4.86371 18.7409,-4.86371 0,0 3.68603,4.5418 12.33457,4.5418 8.64854,0 23.70979,-5.19518 23.70979,-14.92579 m -97.63436,4.5418 c -0.0797,0.48765 -4.40634,4.70116 -10.81426,6.8143 -6.40633,2.10835 -12.12262,0.30916 -12.49393,-3.41034 -0.48128,-4.78403 4.98801,-12.21824 10.73299,-13.46285 4.88761,-1.05179 7.86767,0.24382 9.76885,3.33065 1.60158,2.59122 2.88444,6.24378 2.80476,6.72984 m 84.0998,1.78484 c -3.71631,5.11072 -8.89237,2.31074 -10.1322,1.45975 -1.24302,-0.84939 -2.52429,-2.10835 -2.60397,-2.43185 -0.0797,-0.3251 3.85017,-3.08524 5.64617,-5.31152 3.047,-3.77208 3.00556,-5.31629 4.76491,-5.80075 1.76572,-0.48765 5.56968,7.62225 2.32668,12.08437 m 44.45067,-10.30271 c -1.44062,0.32828 -10.09076,2.35536 -10.41427,6.48919 -0.25179,3.25098 4.00635,6.12267 7.45175,4.8669 4.00315,-1.45656 -0.56415,-8.1083 -0.40319,-8.59436 0.15936,-0.48605 8.41428,-4.38244 22.58948,-4.38244 17.61899,0 19.37835,9.24934 19.37835,9.24934 0,0 12.09553,-8.84137 22.43171,-8.84137 2.72508,0 5.20474,1.13465 4.88442,4.21989 -0.31872,3.08045 -4.72347,5.67805 -4.88283,9.0836 -0.15936,3.40715 7.19039,4.14339 12.97202,4.29957 6.08761,0.15936 20.18471,-0.6486 27.87231,-0.6486 7.69397,0 42.61324,-0.89242 48.05861,-1.38166 5.44697,-0.48606 7.92823,-1.86454 8.733,-3.48524 0.79999,-1.6207 -3.44539,-2.83663 -2.48604,-4.62467 0.41434,-0.76493 7.60951,-3.48523 9.533,-3.48523 1.9203,0 3.4422,1.21593 4.40155,3.64937 0.96099,2.43346 0.54665,5.85494 -11.29074,8.4366 -18.98312,4.13543 -39.16624,4.2167 -51.50241,3.8932 -12.33457,-0.3251 -41.01006,1.78485 -50.61956,0.6486 -9.60949,-1.13466 -8.48918,-2.91632 -6.40632,-6.16729 2.07966,-3.23982 4.9657,-6.81111 3.68443,-8.27085 -1.28445,-1.45816 -4.48602,0.32509 -7.68759,3.56969 -3.20636,3.2446 -5.37048,8.0844 -10.33459,11.02781 -3.28285,1.9474 -10.49235,3.08683 -10.49235,1.6223 0,-0.97211 3.32109,-7.37525 -0.31873,-12.81266 -4.72825,-7.05493 -15.38315,-6.32665 -15.38315,-6.32665 0,0 1.49481,4.20236 -1.35935,9.0836 -3.36253,5.76092 -10.97044,8.35532 -15.85646,8.35532 -3.36731,0 -14.65807,-0.0797 -14.65807,-7.54257 0,-4.07647 6.75055,-8.66607 12.97521,-10.86526 6.64856,-2.35855 9.45013,-2.43823 9.76885,-2.27568 0.31872,0.16255 0.80159,0.89242 -0.63744,1.21592" />
  </g>
</svg>
